<svg width="20" height="21" viewBox="0 0 20 21" fill="none" xmlns="http://www.w3.org/2000/svg">
<path d="M20 10.2093C20 15.8477 15.5228 20.4186 10 20.4186C4.47715 20.4186 0 15.8477 0 10.2093C0 4.57086 4.47715 0 10 0C15.5228 0 20 4.57086 20 10.2093ZM2.75303 10.2093C2.75303 14.2955 5.99761 17.608 10 17.608C14.0024 17.608 17.247 14.2955 17.247 10.2093C17.247 6.12314 14.0024 2.81065 10 2.81065C5.99761 2.81065 2.75303 6.12314 2.75303 10.2093Z" fill="#DD4F05" fill-opacity="0.36"/>
<path d="M20 10.2093C20 12.3617 19.3337 14.4591 18.0962 16.2018C16.8587 17.9444 15.1133 19.2432 13.1096 19.9125C11.1058 20.5818 8.94604 20.5874 6.93893 19.9285C4.93183 19.2697 3.18005 17.98 1.93387 16.2438C0.68769 14.5076 0.0108778 12.4138 0.000129943 10.2613C-0.010618 8.10894 0.645249 6.00813 1.87402 4.25906C3.1028 2.51 4.84161 1.20217 6.84203 0.522442C8.84245 -0.15729 11.0021 -0.174151 13.0125 0.474269L12.1831 3.15435C10.7262 2.68444 9.16113 2.69666 7.71143 3.18926C6.26173 3.68186 5.00162 4.62964 4.11113 5.89718C3.22064 7.16472 2.74533 8.68717 2.75312 10.247C2.76091 11.8069 3.25139 13.3243 4.1545 14.5825C5.0576 15.8407 6.32711 16.7753 7.78165 17.2528C9.2362 17.7303 10.8013 17.7262 12.2535 17.2412C13.7056 16.7561 14.9705 15.8149 15.8673 14.552C16.7641 13.2891 17.247 11.7692 17.247 10.2093H20Z" fill="#DC4D04"/>
</svg>
