<svg width="21" height="21" viewBox="0 0 21 21" fill="none" xmlns="http://www.w3.org/2000/svg">
<circle cx="8.19018" cy="16.7778" r="0.973391" transform="rotate(-47.0154 8.19018 16.7778)" fill="#FF5600"/>
<circle cx="10.4607" cy="18.8949" r="0.973391" transform="rotate(-47.0154 10.4607 18.8949)" fill="#FF5600"/>
<circle cx="5.91968" cy="14.6625" r="0.973391" transform="rotate(-47.0154 5.91968 14.6625)" fill="#FF5600"/>
<circle cx="3.64721" cy="12.5434" r="0.973391" transform="rotate(-47.0154 3.64721 12.5434)" fill="#FF5600"/>
<circle cx="5.76733" cy="10.2719" r="0.973391" transform="rotate(-47.0154 5.76733 10.2719)" fill="#FF5600"/>
<circle cx="1.37671" cy="10.4282" r="0.973391" transform="rotate(-47.0154 1.37671 10.4282)" fill="#FF5600"/>
<circle cx="3.49438" cy="8.15667" r="0.973391" transform="rotate(-47.0154 3.49438 8.15667)" fill="#FF5600"/>
<circle cx="8.03784" cy="12.3891" r="0.973391" transform="rotate(-47.0154 8.03784 12.3891)" fill="#FF5600"/>
<circle cx="10.3083" cy="14.5063" r="0.973391" transform="rotate(-47.0154 10.3083 14.5063)" fill="#FF5600"/>
<circle cx="12.5789" cy="16.6235" r="0.973391" transform="rotate(-47.0154 12.5789 16.6235)" fill="#FF5600"/>
<circle cx="9.97729" cy="10.309" r="0.973391" transform="rotate(-47.0154 9.97729 10.309)" fill="#FF5600"/>
<circle cx="11.9163" cy="8.22503" r="0.973391" transform="rotate(-47.0154 11.9163 8.22503)" fill="#FF5600"/>
<circle cx="14.0349" cy="5.95354" r="0.973391" transform="rotate(-47.0154 14.0349 5.95354)" fill="#FF5600"/>
<circle cx="12.2478" cy="12.4242" r="0.973391" transform="rotate(-47.0154 12.2478 12.4242)" fill="#FF5600"/>
<circle cx="14.3118" cy="10.518" r="0.973391" transform="rotate(-47.0154 14.3118 10.518)" fill="#FF5600"/>
<circle cx="16.6423" cy="12.5864" r="0.973391" transform="rotate(-47.0154 16.6423 12.5864)" fill="#FF5600"/>
<circle cx="18.7117" cy="10.518" r="0.973391" transform="rotate(-47.0154 18.7117 10.518)" fill="#FF5600"/>
<circle cx="16.384" cy="8.18987" r="0.973391" transform="rotate(-47.0154 16.384 8.18987)" fill="#FF5600"/>
<circle cx="14.5183" cy="14.5414" r="0.973391" transform="rotate(-47.0154 14.5183 14.5414)" fill="#FF5600"/>
<circle cx="7.70386" cy="8.18987" r="0.973391" transform="rotate(-47.0154 7.70386 8.18987)" fill="#FF5600"/>
<circle cx="9.64673" cy="6.10979" r="0.973391" transform="rotate(-47.0154 9.64673 6.10979)" fill="#FF5600"/>
<circle cx="11.7615" cy="3.83635" r="0.973391" transform="rotate(-47.0154 11.7615 3.83635)" fill="#FF5600"/>
<circle cx="5.43335" cy="6.07464" r="0.973391" transform="rotate(-47.0154 5.43335 6.07464)" fill="#FF5600"/>
<circle cx="7.37524" cy="3.99065" r="0.973391" transform="rotate(-47.0154 7.37524 3.99065)" fill="#FF5600"/>
<circle cx="9.49194" cy="1.72112" r="0.973391" transform="rotate(-47.0154 9.49194 1.72112)" fill="#FF5600"/>
</svg>
